<svg xmlns="http://www.w3.org/2000/svg" xmlns:xlink="http://www.w3.org/1999/xlink" width="213.073730" height="283.073669" viewBox="0 0 213.074 283.074">
	<path d="M131.739 103.037C131.03 99.028 130.379 95.008 129.788 90.979C129.507 89.067 129.234 87.152 128.988 85.235C128.815 83.891 128.553 82.355 129.466 81.36C130.752 79.959 131.92 78.76 132.077 76.754C132.226 74.867 131.588 72.809 131.189 70.977C130.352 67.135 129.31 63.34 128.16 59.581C126.99 55.762 125.708 51.979 124.408 48.203C123.192 44.673 122.023 41.111 120.439 37.724C117.434 31.296 112.349 26.536 106.066 23.358C104.503 22.567 101.315 19.745 99.6832 19.113C98.1812 18.532 98.1872 20.229 96.7102 19.59C95.5292 19.079 94.4292 18.398 93.7682 17.257C93.0502 16.019 91.2492 14.286 90.9752 12.844C90.3942 9.78899 91.0232 7.18699 88.8432 4.88699C86.9082 2.84499 84.3062 1.44598 81.6142 0.693985C75.6922 -0.958015 67.7949 0.196991 64.2221 5.70199C62.5155 8.33099 61.9192 11.509 59.6166 13.654C57.6059 15.527 58.0558 16.808 55.4516 17.773C55.304 17.828 51.3063 16.97 51.1588 17.025C48.3098 16.415 45.5868 18.123 42.9731 19.113C39.0764 20.59 35.3666 22.512 31.8812 24.797C24.8532 29.404 18.8338 35.385 13.8714 42.154C8.86782 48.979 4.98563 56.629 2.22142 64.623C1.55003 66.565 0.947124 68.531 0.415224 70.516C0.117525 71.627 -0.200575 72.779 0.161825 73.916C0.458324 74.846 1.11793 75.539 1.89233 76.097C2.94212 76.854 5.04792 77.346 5.00692 78.868C4.97552 80.025 4.58313 81.243 4.39162 82.387C4.16372 83.748 3.97633 85.118 3.78893 86.486C2.93692 92.712 2.27362 98.973 1.98032 105.252C1.69162 111.435 1.45202 117.743 1.88073 123.924C1.90902 124.331 2.03053 124.705 2.22643 125.021C2.04353 125.092 2.02953 125.433 2.25703 125.481C2.41663 125.515 2.57582 125.549 2.73532 125.582C3.06662 125.833 3.47982 125.987 3.95533 126.002C4.27773 126.012 4.59982 126.027 4.92183 126.043C8.32003 126.754 11.7175 127.425 15.1599 127.933C19.3444 128.551 23.5412 129.055 27.7511 129.464C36.4016 130.306 44.984 130.027 53.646 129.573C62.2946 129.12 70.9382 129.014 79.5952 129.24C88.2612 129.465 96.9232 129.842 105.59 129.997C115.273 130.169 124.941 129.904 134.596 129.134C135.919 129.029 136.738 127.975 136.477 126.66C134.913 118.78 133.14 110.952 131.739 103.037L131.739 103.037Z" fill="#FFFFFF" fill-opacity="1.000000" stroke-opacity="0" transform="matrix(1 0 0 1 36.9946 113.445)"/>
	<path d="M131.739 103.037C131.03 99.028 130.379 95.008 129.788 90.979C129.507 89.067 129.234 87.152 128.988 85.235C128.815 83.891 128.553 82.355 129.466 81.36C130.752 79.959 131.92 78.76 132.077 76.754C132.226 74.867 131.588 72.809 131.189 70.977C130.352 67.135 129.31 63.34 128.16 59.581C126.99 55.762 125.708 51.979 124.408 48.203C123.192 44.673 122.023 41.111 120.439 37.724C117.434 31.296 112.349 26.536 106.066 23.358C104.503 22.567 101.315 19.745 99.6832 19.113C98.1812 18.532 98.1872 20.229 96.7102 19.59C95.5292 19.079 94.4292 18.398 93.7682 17.257C93.0502 16.019 91.2492 14.286 90.9752 12.844C90.3942 9.78899 91.0232 7.18699 88.8432 4.88699C86.9082 2.84499 84.3062 1.44598 81.6142 0.693985C75.6922 -0.958015 67.7949 0.196991 64.2221 5.70199C62.5155 8.33099 61.9192 11.509 59.6166 13.654C57.6059 15.527 58.0558 16.808 55.4516 17.773C55.304 17.828 51.3063 16.97 51.1588 17.025C48.3098 16.415 45.5868 18.123 42.9731 19.113C39.0764 20.59 35.3666 22.512 31.8812 24.797C24.8532 29.404 18.8338 35.385 13.8714 42.154C8.86782 48.979 4.98563 56.629 2.22142 64.623C1.55003 66.565 0.947124 68.531 0.415224 70.516C0.117525 71.627 -0.200575 72.779 0.161825 73.916C0.458324 74.846 1.11793 75.539 1.89233 76.097C2.94212 76.854 5.04792 77.346 5.00692 78.868C4.97552 80.025 4.58313 81.243 4.39162 82.387C4.16372 83.748 3.97633 85.118 3.78893 86.486C2.93692 92.712 2.27362 98.973 1.98032 105.252C1.69162 111.435 1.45202 117.743 1.88073 123.924C1.90902 124.331 2.03053 124.705 2.22643 125.021C2.04353 125.092 2.02953 125.433 2.25703 125.481C2.41663 125.515 2.57582 125.549 2.73532 125.582C3.06662 125.833 3.47982 125.987 3.95533 126.002C4.27773 126.012 4.59982 126.027 4.92183 126.043C8.32003 126.754 11.7175 127.425 15.1599 127.933C19.3444 128.551 23.5412 129.055 27.7511 129.464C36.4016 130.306 44.984 130.027 53.646 129.573C62.2946 129.12 70.9382 129.014 79.5952 129.24C88.2612 129.465 96.9232 129.842 105.59 129.997C115.273 130.169 124.941 129.904 134.596 129.134C135.919 129.029 136.738 127.975 136.477 126.66C134.913 118.78 133.14 110.952 131.739 103.037L131.739 103.037Z" stroke="#000000" stroke-opacity="0.000000" stroke-width="1" stroke-dasharray="0 0" fill-opacity="0" transform="matrix(1 0 0 1 36.9946 113.445)"/>
	<path d="M68.2224 2.01004C68.7333 0.49604 66.6193 -0.685966 65.5552 0.457039C64.8995 1.16103 64.637 2.06704 64.3229 2.95604L64.2571 3.13904C63.9979 3.84904 63.6731 4.53603 63.3115 5.19904C62.5566 6.58304 61.6002 7.86704 60.5044 9.00004C58.2562 11.324 55.311 12.967 52.3116 14.126C52.2159 14.163 52.1756 14.247 52.1852 14.325C52.0418 14.13 51.8985 13.934 51.7559 13.739C51.6784 13.633 51.4854 13.69 51.5295 13.834C54.1 22.256 61.3759 29.062 69.6053 31.935C78.1132 34.906 87.9522 33.592 94.5992 27.256C97.9072 24.103 100.282 19.863 100.903 15.31C100.93 15.112 100.924 14.932 100.893 14.768C103.818 17.238 106.885 19.53 109.753 22.069C113.102 25.035 116.355 28.206 119.029 31.807C121.741 35.461 123.786 39.496 125.152 43.836C126.452 47.965 127.226 52.23 127.943 56.492L128.306 58.658C129.119 63.474 130.07 68.22 131.46 72.897C129.906 73.395 128.357 73.909 126.808 74.427L123.862 75.411C123.081 75.672 122.198 76.103 121.379 76.275C120.813 76.182 120.247 76.419 119.872 76.83C119.665 73.529 119.508 70.226 119.395 66.925C119.31 64.414 119.262 61.9 119.154 59.389C119.041 56.759 118.81 54.138 118.663 51.514C118.658 51.427 118.541 51.431 118.53 51.514C118.219 53.854 117.871 56.17 117.703 58.533C117.538 60.868 117.461 63.215 117.441 65.555C117.403 70.121 117.47 74.686 117.687 79.247C118.127 88.492 118.998 97.722 120.37 106.875C120.759 109.473 121.195 112.063 121.668 114.647C121.895 115.883 122.129 117.117 122.371 118.35C122.503 119.017 122.606 119.706 122.776 120.365C122.963 121.091 123.294 121.436 123.929 121.834C124.408 122.135 124.999 121.911 125.295 121.476C125.655 120.946 125.832 120.549 125.732 119.904C125.644 119.341 125.509 118.783 125.397 118.224C125.17 117.105 124.95 115.985 124.738 114.863C124.312 112.62 123.92 110.371 123.538 108.12C122.768 103.573 122.115 99.006 121.527 94.433C120.88 89.407 120.395 84.355 120.037 79.294C120.336 79.585 120.724 79.746 121.232 79.808C122.012 79.903 122.899 79.533 123.701 79.198C123.967 79.087 124.224 78.98 124.465 78.895L128.358 77.518L129.155 77.235C129.19 79.613 129.435 82.02 129.636 84.366L129.795 86.22C130.006 88.693 130.215 91.164 130.413 93.638C130.858 99.214 131.74 104.766 132.668 110.283L132.938 111.885C133.227 113.594 133.524 115.303 133.827 117.01C133.979 117.863 134.14 118.714 134.309 119.564C134.398 120.007 134.447 120.492 134.582 120.922C134.795 121.602 135.267 121.883 135.869 122.165L135.98 122.216C136.317 122.37 136.715 122.369 136.99 122.085C137.324 121.741 137.699 121.402 137.831 120.922C137.938 120.534 137.86 120.133 137.784 119.743C137.777 119.711 137.771 119.678 137.765 119.646L137.74 119.513C137.599 118.716 137.466 117.918 137.319 117.122C137.045 115.646 136.764 114.171 136.494 112.694C135.934 109.627 135.429 106.55 134.868 103.483C133.772 97.485 132.494 91.518 131.45 85.512C130.96 82.687 130.56 79.778 129.905 76.967C131.239 76.489 132.571 76.006 133.898 75.507C134.961 75.107 135.295 74.154 134.862 73.137C133.186 69.209 132.357 64.902 131.615 60.678L131.125 57.875C130.33 53.299 129.576 48.703 128.263 44.241C125.588 35.152 120.067 27.433 112.698 21.529C109.134 18.674 105.348 16.1 101.237 14.126L101.211 14.114C100.943 13.99 100.251 13.731 99.6622 13.707C99.0532 13.682 98.4302 14.074 98.3262 14.961L98.3242 14.976L98.2482 14.895C97.8352 14.475 97.2782 14.21 96.8172 13.844C96.3442 13.468 95.9072 13.04 95.5032 12.592C94.7482 11.754 94.1282 10.777 93.6112 9.77704C92.5542 7.73204 92.2292 5.56303 91.9682 3.32004L91.9172 2.87104C91.8842 2.58304 91.4992 2.41804 91.3322 2.71204C89.9802 5.10604 90.2972 8.28603 91.2882 10.756C91.8292 12.106 92.5672 13.3 93.5132 14.406C94.3872 15.429 95.7282 16.854 97.0832 17.148C97.4002 17.217 97.6892 17.18 97.9312 17.071C96.2382 23.661 90.4792 28.832 83.9422 30.491C75.6342 32.601 67.0305 29.636 60.7113 24.139C57.6099 21.441 55.0366 18.186 52.5973 14.885L52.2867 14.463C52.308 14.473 52.3321 14.48 52.3599 14.483C55.9652 14.788 59.3129 13.359 62.1203 11.159C65.1069 8.81904 67.0207 5.57104 68.2224 2.01004L68.2224 2.01004ZM51.7676 12.201C51.0757 12.123 50.3773 12.045 49.6894 12.075C48.8031 12.113 47.9198 12.17 47.0378 12.268C45.4026 12.451 43.7032 12.897 42.1415 13.408C38.8001 14.502 35.6406 16.05 32.6758 17.936C26.6114 21.792 21.4371 26.933 17.0569 32.603C12.191 38.901 8.20727 45.867 5.12097 53.199C3.57957 56.862 2.26257 60.616 1.19737 64.445C0.934668 65.389 0.685768 66.337 0.454567 67.29L0.434267 67.373C0.401968 67.502 0.367567 67.633 0.332767 67.766C0.112467 68.606 -0.124832 69.512 0.0755672 70.349C0.283667 71.219 0.928368 71.809 1.67597 72.239C2.61817 72.78 3.62047 73.241 4.58987 73.732C5.13637 74.009 5.68497 74.285 6.23517 74.558C4.82207 78.983 4.12817 83.681 3.49607 88.274L3.15757 90.745C2.29057 97.146 1.62697 103.573 1.29497 110.025C1.20007 111.871 1.12207 113.718 1.06097 115.564C1.03057 116.488 1.00427 117.412 0.982468 118.335C0.979467 118.458 0.974968 118.58 0.970467 118.703C0.934267 119.675 0.898668 120.633 1.68497 121.357C2.34617 121.966 3.24867 121.935 3.91677 121.357C4.57457 120.788 4.65407 120.063 4.67387 119.281L4.69807 118.047C4.70977 117.508 4.72277 116.969 4.73747 116.43C4.78087 114.814 4.83757 113.198 4.90717 111.583C5.04857 108.296 5.21117 105.01 5.43437 101.727C5.87647 95.228 6.46717 88.752 7.13697 82.273C7.37697 79.951 7.62487 77.624 7.72757 75.293C14.8188 78.737 22.252 81.685 30.2085 81.942C29.9744 84.508 29.7469 87.074 29.5364 89.642C28.9422 96.883 28.2997 104.119 27.7413 111.363C27.5885 113.348 27.4394 115.333 27.3005 117.319C27.257 117.939 27.2032 118.563 27.1493 119.188C27.0218 120.666 26.8938 122.152 26.9004 123.625C26.9042 124.419 27.5093 125.112 28.2959 125.206C29.0068 125.291 29.9455 124.855 30.0615 124.053C30.5821 120.456 30.6559 116.742 30.8839 113.115C31.1116 109.495 31.3636 105.876 31.5587 102.254C31.9484 95.014 32.3867 87.776 32.7169 80.533C32.9033 76.444 33.074 72.342 32.5397 68.271C32.5182 68.107 32.2832 68.045 32.2316 68.23C31.2725 71.668 30.833 75.234 30.4982 78.781L30.4394 79.423C22.9286 79.231 15.797 76.455 9.12257 73.182L8.71447 72.981C8.45287 72.852 5.84377 71.524 4.27737 70.716L3.47437 70.3C3.23647 70.175 2.72447 70.027 2.59277 69.787C2.47657 69.576 2.61657 69.116 2.71327 68.798C2.74037 68.709 2.76417 68.63 2.77787 68.572C2.99027 67.668 3.21417 66.767 3.45217 65.869C4.43107 62.18 5.63957 58.551 7.06567 55.011C12.3176 41.974 20.6397 29.382 32.1383 21.065C35.1244 18.905 38.369 17.025 41.7851 15.632C43.4992 14.933 45.2179 14.393 46.9885 13.869L47.6608 13.67C49.2309 13.206 50.8121 12.749 52.4108 12.415C52.4985 12.396 52.4689 12.276 52.3911 12.269C52.1841 12.248 51.9761 12.225 51.7676 12.201L51.7676 12.201Z" fill="#000000" fill-opacity="1.000000" stroke-opacity="0" transform="matrix(1 0 0 1 35.7617 118.202)"/>
	<path d="M68.2224 2.01004C68.7333 0.49604 66.6193 -0.685966 65.5552 0.457039C64.8995 1.16103 64.637 2.06704 64.3229 2.95604L64.2571 3.13904C63.9979 3.84904 63.6731 4.53603 63.3115 5.19904C62.5566 6.58304 61.6002 7.86704 60.5044 9.00004C58.2562 11.324 55.311 12.967 52.3116 14.126C52.2159 14.163 52.1756 14.247 52.1852 14.325C52.0418 14.13 51.8985 13.934 51.7559 13.739C51.6784 13.633 51.4854 13.69 51.5295 13.834C54.1 22.256 61.3759 29.062 69.6053 31.935C78.1132 34.906 87.9522 33.592 94.5992 27.256C97.9072 24.103 100.282 19.863 100.903 15.31C100.93 15.112 100.924 14.932 100.893 14.768C103.818 17.238 106.885 19.53 109.753 22.069C113.102 25.035 116.355 28.206 119.029 31.807C121.741 35.461 123.786 39.496 125.152 43.836C126.452 47.965 127.226 52.23 127.943 56.492L128.306 58.658C129.119 63.474 130.07 68.22 131.46 72.897C129.906 73.395 128.357 73.909 126.808 74.427L123.862 75.411C123.081 75.672 122.198 76.103 121.379 76.275C120.813 76.182 120.247 76.419 119.872 76.83C119.665 73.529 119.508 70.226 119.395 66.925C119.31 64.414 119.262 61.9 119.154 59.389C119.041 56.759 118.81 54.138 118.663 51.514C118.658 51.427 118.541 51.431 118.53 51.514C118.219 53.854 117.871 56.17 117.703 58.533C117.538 60.868 117.461 63.215 117.441 65.555C117.403 70.121 117.47 74.686 117.687 79.247C118.127 88.492 118.998 97.722 120.37 106.875C120.759 109.473 121.195 112.063 121.668 114.647C121.895 115.883 122.129 117.117 122.371 118.35C122.503 119.017 122.606 119.706 122.776 120.365C122.963 121.091 123.294 121.436 123.929 121.834C124.408 122.135 124.999 121.911 125.295 121.476C125.655 120.946 125.832 120.549 125.732 119.904C125.644 119.341 125.509 118.783 125.397 118.224C125.17 117.105 124.95 115.985 124.738 114.863C124.312 112.62 123.92 110.371 123.538 108.12C122.768 103.573 122.115 99.006 121.527 94.433C120.88 89.407 120.395 84.355 120.037 79.294C120.336 79.585 120.724 79.746 121.232 79.808C122.012 79.903 122.899 79.533 123.701 79.198C123.967 79.087 124.224 78.98 124.465 78.895L128.358 77.518L129.155 77.235C129.19 79.613 129.435 82.02 129.636 84.366L129.795 86.22C130.006 88.693 130.215 91.164 130.413 93.638C130.858 99.214 131.74 104.766 132.668 110.283L132.938 111.885C133.227 113.594 133.524 115.303 133.827 117.01C133.979 117.863 134.14 118.714 134.309 119.564C134.398 120.007 134.447 120.492 134.582 120.922C134.795 121.602 135.267 121.883 135.869 122.165L135.98 122.216C136.317 122.37 136.715 122.369 136.99 122.085C137.324 121.741 137.699 121.402 137.831 120.922C137.938 120.534 137.86 120.133 137.784 119.743C137.777 119.711 137.771 119.678 137.765 119.646L137.74 119.513C137.599 118.716 137.466 117.918 137.319 117.122C137.045 115.646 136.764 114.171 136.494 112.694C135.934 109.627 135.429 106.55 134.868 103.483C133.772 97.485 132.494 91.518 131.45 85.512C130.96 82.687 130.56 79.778 129.905 76.967C131.239 76.489 132.571 76.006 133.898 75.507C134.961 75.107 135.295 74.154 134.862 73.137C133.186 69.209 132.357 64.902 131.615 60.678L131.125 57.875C130.33 53.299 129.576 48.703 128.263 44.241C125.588 35.152 120.067 27.433 112.698 21.529C109.134 18.674 105.348 16.1 101.237 14.126L101.211 14.114C100.943 13.99 100.251 13.731 99.6622 13.707C99.0532 13.682 98.4302 14.074 98.3262 14.961L98.3242 14.976L98.2482 14.895C97.8352 14.475 97.2782 14.21 96.8172 13.844C96.3442 13.468 95.9072 13.04 95.5032 12.592C94.7482 11.754 94.1282 10.777 93.6112 9.77704C92.5542 7.73204 92.2292 5.56303 91.9682 3.32004L91.9172 2.87104C91.8842 2.58304 91.4992 2.41804 91.3322 2.71204C89.9802 5.10604 90.2972 8.28603 91.2882 10.756C91.8292 12.106 92.5672 13.3 93.5132 14.406C94.3872 15.429 95.7282 16.854 97.0832 17.148C97.4002 17.217 97.6892 17.18 97.9312 17.071C96.2382 23.661 90.4792 28.832 83.9422 30.491C75.6342 32.601 67.0305 29.636 60.7113 24.139C57.6099 21.441 55.0366 18.186 52.5973 14.885L52.2867 14.463C52.308 14.473 52.3321 14.48 52.3599 14.483C55.9652 14.788 59.3129 13.359 62.1203 11.159C65.1069 8.81904 67.0207 5.57104 68.2224 2.01004L68.2224 2.01004ZM51.7676 12.201C51.0757 12.123 50.3773 12.045 49.6894 12.075C48.8031 12.113 47.9198 12.17 47.0378 12.268C45.4026 12.451 43.7032 12.897 42.1415 13.408C38.8001 14.502 35.6406 16.05 32.6758 17.936C26.6114 21.792 21.4371 26.933 17.0569 32.603C12.191 38.901 8.20727 45.867 5.12097 53.199C3.57957 56.862 2.26257 60.616 1.19737 64.445C0.934668 65.389 0.685768 66.337 0.454567 67.29L0.434267 67.373C0.401968 67.502 0.367567 67.633 0.332767 67.766C0.112467 68.606 -0.124832 69.512 0.0755672 70.349C0.283667 71.219 0.928368 71.809 1.67597 72.239C2.61817 72.78 3.62047 73.241 4.58987 73.732C5.13637 74.009 5.68497 74.285 6.23517 74.558C4.82207 78.983 4.12817 83.681 3.49607 88.274L3.15757 90.745C2.29057 97.146 1.62697 103.573 1.29497 110.025C1.20007 111.871 1.12207 113.718 1.06097 115.564C1.03057 116.488 1.00427 117.412 0.982468 118.335C0.979467 118.458 0.974968 118.58 0.970467 118.703C0.934267 119.675 0.898668 120.633 1.68497 121.357C2.34617 121.966 3.24867 121.935 3.91677 121.357C4.57457 120.788 4.65407 120.063 4.67387 119.281L4.69807 118.047C4.70977 117.508 4.72277 116.969 4.73747 116.43C4.78087 114.814 4.83757 113.198 4.90717 111.583C5.04857 108.296 5.21117 105.01 5.43437 101.727C5.87647 95.228 6.46717 88.752 7.13697 82.273C7.37697 79.951 7.62487 77.624 7.72757 75.293C14.8188 78.737 22.252 81.685 30.2085 81.942C29.9744 84.508 29.7469 87.074 29.5364 89.642C28.9422 96.883 28.2997 104.119 27.7413 111.363C27.5885 113.348 27.4394 115.333 27.3005 117.319C27.257 117.939 27.2032 118.563 27.1493 119.188C27.0218 120.666 26.8938 122.152 26.9004 123.625C26.9042 124.419 27.5093 125.112 28.2959 125.206C29.0068 125.291 29.9455 124.855 30.0615 124.053C30.5821 120.456 30.6559 116.742 30.8839 113.115C31.1116 109.495 31.3636 105.876 31.5587 102.254C31.9484 95.014 32.3867 87.776 32.7169 80.533C32.9033 76.444 33.074 72.342 32.5397 68.271C32.5182 68.107 32.2832 68.045 32.2316 68.23C31.2725 71.668 30.833 75.234 30.4982 78.781L30.4394 79.423C22.9286 79.231 15.797 76.455 9.12257 73.182L8.71447 72.981C8.45287 72.852 5.84377 71.524 4.27737 70.716L3.47437 70.3C3.23647 70.175 2.72447 70.027 2.59277 69.787C2.47657 69.576 2.61657 69.116 2.71327 68.798C2.74037 68.709 2.76417 68.63 2.77787 68.572C2.99027 67.668 3.21417 66.767 3.45217 65.869C4.43107 62.18 5.63957 58.551 7.06567 55.011C12.3176 41.974 20.6397 29.382 32.1383 21.065C35.1244 18.905 38.369 17.025 41.7851 15.632C43.4992 14.933 45.2179 14.393 46.9885 13.869L47.6608 13.67C49.2309 13.206 50.8121 12.749 52.4108 12.415C52.4985 12.396 52.4689 12.276 52.3911 12.269C52.1841 12.248 51.9761 12.225 51.7676 12.201L51.7676 12.201Z" stroke="#000000" stroke-opacity="0.000000" stroke-width="1" stroke-dasharray="0 0" fill-opacity="0" transform="matrix(1 0 0 1 35.7617 118.202)"/>
	<path d="M63.4689 36.8237C63.0499 31.4089 63.6989 25.7333 61.6119 20.5866C57.9729 12.0471 47.7689 9.19991 39.8589 5.94891C36.6899 5.01221 26.0264 4.88111 22.3158 3.64131C13.9179 0.835411 11.9114 -2.50789 5.23853 2.83471C4.11213 3.74751 3.40733 4.73941 2.89323 6.09471L2.91433 6.10051C2.76762 6.66551 2.92493 7.22921 3.25573 7.65991C0.362427 10.6184 -0.848274 15.0539 0.63623 18.9924C5.48083 29.2409 5.25293 34.7822 3.69202 45.8C1.65363 56.0856 6.31163 59.843 14.0256 65.4394C13.7115 66.0484 13.6464 66.8584 14.0559 67.3964C22.9762 79.9364 39.7949 85.9234 54.2059 79.5584C60.0559 76.9534 62.6669 70.7214 64.1569 65.0984C65.8939 58.8024 66.4269 52.1677 65.0139 45.7541C64.4439 42.7878 63.7009 39.843 63.4689 36.8237L63.4689 36.8237Z" fill="#FFFFFF" fill-opacity="1.000000" stroke-opacity="0" transform="matrix(1 0 0 1 78.5439 44.3474)"/>
	<path d="M63.4689 36.8237C63.0499 31.4089 63.6989 25.7333 61.6119 20.5866C57.9729 12.0471 47.7689 9.19991 39.8589 5.94891C36.6899 5.01221 26.0264 4.88111 22.3158 3.64131C13.9179 0.835411 11.9114 -2.50789 5.23853 2.83471C4.11213 3.74751 3.40733 4.73941 2.89323 6.09471L2.91433 6.10051C2.76762 6.66551 2.92493 7.22921 3.25573 7.65991C0.362427 10.6184 -0.848274 15.0539 0.63623 18.9924C5.48083 29.2409 5.25293 34.7822 3.69202 45.8C1.65363 56.0856 6.31163 59.843 14.0256 65.4394C13.7115 66.0484 13.6464 66.8584 14.0559 67.3964C22.9762 79.9364 39.7949 85.9234 54.2059 79.5584C60.0559 76.9534 62.6669 70.7214 64.1569 65.0984C65.8939 58.8024 66.4269 52.1677 65.0139 45.7541C64.4439 42.7878 63.7009 39.843 63.4689 36.8237L63.4689 36.8237Z" stroke="#000000" stroke-opacity="0.000000" stroke-width="1" stroke-dasharray="0 0" fill-opacity="0" transform="matrix(1 0 0 1 78.5439 44.3474)"/>
	<path d="M38.4239 1.48088C38.0349 0.533679 37.2172 -0.138521 36.1345 0.0243788C35.1327 0.175678 34.2824 1.02628 34.3106 2.09198L34.313 2.25848C34.3154 2.59078 34.3027 2.91938 34.2771 3.24388C33.0236 3.23138 31.7595 3.37938 30.5517 3.64378C30.0377 3.75628 29.5324 3.90078 29.0306 4.06468C28.4127 4.11228 27.7965 4.25478 27.1943 4.50658C26.6627 4.73038 26.175 5.03148 25.7384 5.39248C25.0112 5.72188 24.2859 6.05998 23.5588 6.38228L21.8229 6.47038L21.7468 6.47508C21.4454 6.49798 21.1782 6.56948 20.9426 6.68008C20.4179 6.25728 19.8581 5.87518 19.2736 5.54218C18.2067 4.93448 17.0746 5.37148 16.3933 6.29778C15.9602 6.88618 15.645 7.53408 15.4338 8.21238C14.6661 8.45528 14.138 9.20378 14.057 9.98778C11.9813 10.236 10.0447 11.3103 8.98135 13.3147C8.95145 13.3728 8.92505 13.4309 8.89864 13.489C8.21555 14.102 7.62925 14.8293 7.17324 15.636C6.09055 15.9426 5.07645 16.4216 4.19434 17.2212C2.79115 18.4909 2.09584 20.6909 2.69614 22.5136C2.77185 22.7392 2.86164 22.9487 2.96375 23.146C1.89685 24.3684 1.05175 25.7915 0.465546 27.3325C0.259544 27.8679 0.375744 28.4597 0.678547 28.9511C-0.0767555 30.7705 0.0447464 32.9438 1.44614 34.4057C1.30704 34.6909 1.17855 34.9817 1.06065 35.2758C1.01305 35.3603 0.963745 35.4448 0.919746 35.5329C-0.219357 37.7539 -0.303856 40.1333 0.685646 42.416C0.944344 43.0095 1.85815 43.5449 2.50425 43.4585C3.69965 43.2983 4.87045 43.0481 6.00425 42.7011C5.27364 43.4021 4.63985 44.2087 4.12925 45.1071C3.36874 46.4455 4.31934 48.3408 5.94614 48.2739C8.21194 48.1804 10.4285 47.6889 12.4884 46.7944C12.807 47.0461 13.1697 47.2224 13.5588 47.3261C13.7648 48.9958 15.7384 49.9277 17.0447 48.6613C17.5606 48.1628 18.0764 47.6643 18.5905 47.1643C19.0042 47.7524 19.7155 48.1875 20.3528 48.1047C20.7075 48.059 21.0582 48.0356 21.4037 48.0337C21.1607 48.2871 20.9352 48.5642 20.7308 48.873C20.2903 49.5383 21.0162 50.3442 21.7248 50.1667C22.6885 49.925 23.6077 49.5708 24.4764 49.1071C24.5399 49.1613 24.6125 49.2019 24.6908 49.2304C24.5315 49.5595 24.4223 49.9265 24.3704 50.3235L24.3685 50.3549C24.2216 50.3237 24.0688 50.3025 23.9056 50.301C22.55 50.2851 21.4056 51.5005 21.3563 52.8232C21.3458 53.1347 21.395 53.4289 21.4901 53.7002C21.0592 55.4821 20.9834 57.4008 21.5822 58.9941C21.5015 59.1845 21.5079 59.4126 21.5745 59.6096C21.1993 60.0156 20.9514 60.5588 20.8966 61.1621C20.8033 62.1877 21.3037 63.0153 21.9852 63.7031C22.0194 63.7968 22.0568 63.8899 22.0977 63.9817C22.0905 64.0344 22.0855 64.0874 22.0823 64.1403C21.3848 64.9734 21.2368 66.2138 21.9697 67.2434C22.0014 67.2878 22.0349 67.3288 22.0685 67.3689C22.0903 67.684 22.1609 67.9975 22.281 68.3007C22.2227 68.4641 22.1464 68.6262 22.1098 68.7829C21.9996 69.2534 21.9866 69.7256 22.0507 70.2019C22.1317 70.8034 22.3452 71.3725 22.6701 71.8713L22.6933 72.0288C22.6132 72.2868 22.5975 72.5808 22.6679 72.905C22.6204 72.9314 22.5711 72.9577 22.5236 72.9824C21.0465 72.3835 19.182 72.653 18.1169 73.886C17.0729 75.0922 17.7559 76.9997 19.425 77.049C20.1345 77.0686 20.8757 76.9592 21.5817 76.7339L21.8017 76.8906C22.3827 77.2939 23.0693 77.5283 23.7525 77.5175C23.7769 77.7968 23.8014 78.0764 23.8327 78.3554C23.9121 79.3418 24.1241 80.3176 24.572 81.143C23.6195 82.3491 22.722 83.643 21.6468 84.7282C20.6715 85.7158 21.9531 87.5168 23.1697 86.7028L23.3034 86.6148C24.6489 85.7538 26.2331 85.2783 27.4496 84.2385C27.8916 84.5415 28.3334 84.8444 28.7753 85.1455C28.7084 85.2512 28.6433 85.3552 28.5799 85.4588L28.4932 85.5998C28.1124 86.2048 27.6696 86.7838 27.1873 87.3088C26.2084 88.3738 24.9531 89.0238 23.8916 89.9788C23.4813 90.3468 23.9267 90.9228 24.3898 90.8348C25.9064 90.5438 27.1322 89.3298 28.0732 88.1438L28.1785 88.0098C28.6697 87.3808 29.0658 86.7128 29.3862 85.9818C29.4584 85.9138 29.5341 85.8488 29.6081 85.7828C29.8634 85.9998 30.1134 86.2218 30.3563 86.4528C30.7947 87.1678 31.314 87.8458 31.7771 88.5168C31.9602 88.7808 32.2894 88.9848 32.6257 89.0328C33.1961 89.8218 33.7084 90.6568 34.1503 91.5338C34.7577 92.7438 36.851 91.8968 36.3651 90.6008L36.2014 90.1598C36.2841 90.0688 36.3581 89.9678 36.425 89.8608C36.6098 90.2018 36.8088 90.5348 37.02 90.8508C38.506 93.0538 40.5922 95.5758 43.4619 95.6158C44.3792 95.6288 45.013 94.5558 44.5236 93.7648C43.9028 92.7638 43.1364 92.1168 42.2562 91.4178L41.8721 91.1148C40.9584 90.3908 40.094 89.6088 39.3017 88.7528C38.5236 87.9088 37.8299 87.0368 37.1468 86.1138C37.013 85.9328 36.6521 85.2566 36.2542 84.7705C36.7454 84.4604 37.0112 84.0554 37.307 83.4548C37.6468 82.7661 36.9725 82.1479 36.3017 82.4492C36.006 82.583 35.6398 82.6023 35.3264 82.7292C35.1116 82.8171 34.9003 82.9106 34.675 82.9775C34.145 83.1325 33.5781 83.1623 33.0324 83.0761C31.8387 82.886 30.8334 82.1303 30.0693 81.2251C28.4091 79.2612 27.513 76.3183 27.9813 73.7732C28.4179 71.4043 30.1996 69.3225 32.6187 68.8628C34.8721 68.4348 37.4866 70.124 37.9408 72.3589C37.976 72.5315 38.2208 72.477 38.2331 72.3203C38.2806 71.6738 38.1997 71.0556 38.0183 70.4797C38.8052 70.9922 39.6979 71.3391 40.6591 71.4782C40.6926 71.4836 40.7243 71.4853 40.7559 71.487C41.3193 71.7107 41.9215 71.8217 42.4813 71.7988C42.7208 71.79 42.9373 71.5998 42.932 71.3479C42.844 66.7036 41.9003 62.0942 40.5394 57.6435L41.0654 58.0986C41.9003 58.8303 42.7703 59.7439 43.8563 60.0708C45.9267 60.696 47.1661 58.8554 47.0042 56.9919C46.9194 56.0168 46.6105 55.0839 46.3288 54.1523L46.2454 53.8728C45.858 52.5608 45.4708 51.2485 45.0852 49.9382C45.0852 49.8994 45.0852 49.8606 45.0834 49.8237C46.5112 50.5952 48.307 51.0708 49.5447 49.8852C50.3104 49.1538 50.4979 48.0786 50.5954 47.0651L50.6151 46.8488C50.6627 46.3047 50.6908 45.7551 50.7049 45.2058C51.6838 46.2553 52.7915 47.1714 54.1115 47.7402C56.3965 48.7246 58.9305 48.2807 60.7315 46.5566C60.7545 46.5354 60.7755 46.5107 60.7965 46.4897C61.3365 46.6252 61.8885 46.7256 62.4426 46.8137C64.5415 47.1484 66.7845 47.476 68.9105 47.4443C70.8365 47.4143 72.8456 47.0866 74.4515 45.9524C75.4675 45.2373 76.3935 44.1789 76.8586 42.976L76.8965 42.99L76.8805 43.0332C76.7265 43.4651 76.7915 43.9316 77.1855 44.3833C77.5305 44.7795 78.0815 44.945 78.6325 44.9362C78.7415 45.1193 78.8805 45.2956 79.0885 45.477C79.5255 45.8625 79.9935 46.1743 80.5255 46.4087C81.6646 46.9157 82.8055 46.9775 84.0215 46.759C84.1826 46.7309 84.3295 46.6587 84.4615 46.5583C85.0585 47.7365 85.5396 48.9712 85.9075 50.2412C86.0425 50.7077 86.1346 51.1904 86.2455 51.666C86.3376 52.8933 86.3936 54.125 86.4465 55.351L86.4915 56.4001C86.6275 59.4753 86.5975 62.5539 86.6785 65.6308C86.7635 68.7783 87.1555 71.9272 87.2825 75.0747C88.1805 97.2698 79.4406 102.423 69.1346 103.771C64.7616 104.343 59.8755 103.018 57.2155 102.13C55.6715 101.614 54.8075 103.419 57.0315 104.304C59.2555 105.189 63.7285 106.777 69.0995 106.462C79.3345 105.863 87.7135 98.1508 89.6346 88.0218C90.5596 83.1469 90.2375 78.0903 89.9205 73.1213C89.8575 72.1298 89.7946 71.1418 89.7415 70.1594L89.7155 69.6535C89.6875 69.0952 89.6595 68.5388 89.6326 67.9821C90.0625 68.5669 90.6416 69.0161 91.3015 69.3261C92.8615 70.0605 94.9216 70.0676 95.8846 68.4084C96.1906 67.8801 95.6745 67.0893 95.0466 67.3164C94.0466 67.6775 92.9375 67.9858 91.8795 67.7021C91.1156 67.4961 90.0576 66.9008 89.5396 66.1486C89.4395 64.2307 89.3226 62.3127 89.1525 60.4001C89.0305 59.0615 88.9035 57.7124 88.7276 56.372C89.1965 56.3579 89.6436 56.0991 89.7265 55.5725C89.8495 54.778 89.8916 53.9751 90.0076 53.1823C90.0305 53.0295 90.0576 52.884 90.0845 52.7414C90.1675 52.3012 90.2446 51.8923 90.1606 51.4001C90.0835 50.9384 89.9655 50.4824 89.8475 50.0297C89.3736 48.2402 88.6745 46.4968 87.8286 44.8518C87.1996 43.6276 86.4906 42.4404 85.7045 41.3081C85.2805 40.2856 84.5676 39.3154 83.9115 38.3891L83.7415 38.1484L83.8145 37.7573L83.8246 37.697C83.9756 36.7544 83.6685 35.9091 82.8456 35.3796C80.7036 34.0007 78.5676 32.611 76.4195 31.2407C75.4975 30.6526 74.3846 30.2192 73.3265 30.1875C72.3635 28.9001 70.8315 28.0935 69.0855 27.8098C67.6995 27.5844 66.3085 27.572 64.9395 27.2409C63.6395 26.9257 62.3725 26.487 61.0515 26.2617C59.0005 25.9111 56.7155 25.8918 54.8075 26.8271C53.2456 26.8305 51.6838 26.9397 50.1309 27.1723C49.6151 26.4887 49.0148 25.8725 48.3493 25.3318C48.4267 25.2207 48.5077 25.1115 48.5887 25.0024C49.0482 25.1169 49.5552 25.0568 50.0465 24.7487C51.7155 23.7009 52.7645 22.0329 52.6535 20.0339C52.6065 19.1779 52.1555 18.6108 51.5694 18.3554C51.7736 17.6914 52.0394 17.0451 52.3635 16.4162C52.6505 15.99 52.9175 15.5481 53.1555 15.0813C54.3955 12.6613 51.0236 10.6975 49.5219 12.9572C49.2666 13.341 49.0289 13.7373 48.8088 14.1408C48.4901 14.6003 48.1327 15.0319 47.7419 15.4282L47.8651 13.5542L47.8676 13.5009C47.8884 12.81 47.4469 12.1428 46.8616 11.77L47.1644 10.4262C47.2141 10.2068 47.267 9.98428 47.3204 9.75998C47.7636 7.89938 48.2404 5.89718 47.1486 4.18088C45.4338 1.48798 41.5676 1.14618 38.8581 2.47598C38.7084 2.16768 38.5693 1.85418 38.4443 1.53188L38.4239 1.48088L38.4239 1.48088ZM34.1043 31.1252C36.7524 29.0149 40.31 26.9267 43.8449 26.8337C44.6622 27.1474 45.4179 27.5722 46.0832 28.1093C43.3649 28.9882 40.8085 30.3408 38.5216 32.0669C35.5057 34.3442 32.997 37.081 30.7188 40.0839C29.8929 41.1716 29.1224 42.2978 28.4132 43.4599L28.4063 43.4919C28.2186 44.1814 27.8961 44.8315 27.5271 45.4475C27.4301 45.3464 27.3073 45.2702 27.1596 45.2351C26.7012 45.1257 26.2848 44.895 25.9639 44.5732C26.041 44.2771 26.1468 43.9904 26.2892 43.7241L26.3455 43.478C26.5269 42.6748 26.6624 41.8698 26.879 41.0739C27.2077 39.8684 27.5968 38.6716 28.0499 37.4992C29.8114 35.1452 31.8007 32.9614 34.1043 31.1252L34.1043 31.1252ZM23.6979 51.0547C23.3246 51.0669 23.4496 51.4299 23.6416 51.1269C23.6574 51.1023 23.6767 51.0776 23.6979 51.0547L23.6979 51.0547ZM35.055 73.7644C33.6384 73.0825 32.3188 72.8437 30.7612 72.7529L30.7399 72.7529C30.5534 72.7619 30.4859 73.0468 30.6573 73.1369C31.8703 73.7763 33.101 74.7326 34.1027 75.6626C35.0957 76.5854 35.9337 78.0649 37.4003 78.1652C37.9355 78.2024 38.2753 77.7092 38.3245 77.2407C38.4989 75.594 36.4284 74.4455 35.1767 73.8237L35.055 73.7644L35.055 73.7644ZM25.8725 82.5886L25.7554 82.8042C25.7365 82.8396 25.7178 82.8745 25.6995 82.9087C25.9477 82.8894 26.1977 82.8945 26.4442 82.9228L26.4435 82.8964C26.4118 82.8857 26.3801 82.8759 26.3498 82.861C26.1798 82.7793 26.0216 82.6877 25.8725 82.5886L25.8725 82.5886ZM34.3967 85.3657C34.571 85.3447 34.7453 85.3147 34.9179 85.2778C34.9125 85.5018 34.9372 85.7428 34.9794 85.9818C34.8369 85.9118 34.6942 85.8358 34.5534 85.7568C34.5023 85.6268 34.4495 85.4958 34.3967 85.3657L34.3967 85.3657Z" fill="#000000" fill-opacity="1.000000" stroke-opacity="0" transform="matrix(1 0 0 1 54.4243 21.1551)"/>
	<path d="M38.4239 1.48088C38.0349 0.533679 37.2172 -0.138521 36.1345 0.0243788C35.1327 0.175678 34.2824 1.02628 34.3106 2.09198L34.313 2.25848C34.3154 2.59078 34.3027 2.91938 34.2771 3.24388C33.0236 3.23138 31.7595 3.37938 30.5517 3.64378C30.0377 3.75628 29.5324 3.90078 29.0306 4.06468C28.4127 4.11228 27.7965 4.25478 27.1943 4.50658C26.6627 4.73038 26.175 5.03148 25.7384 5.39248C25.0112 5.72188 24.2859 6.05998 23.5588 6.38228L21.8229 6.47038L21.7468 6.47508C21.4454 6.49798 21.1782 6.56948 20.9426 6.68008C20.4179 6.25728 19.8581 5.87518 19.2736 5.54218C18.2067 4.93448 17.0746 5.37148 16.3933 6.29778C15.9602 6.88618 15.645 7.53408 15.4338 8.21238C14.6661 8.45528 14.138 9.20378 14.057 9.98778C11.9813 10.236 10.0447 11.3103 8.98135 13.3147C8.95145 13.3728 8.92505 13.4309 8.89864 13.489C8.21555 14.102 7.62925 14.8293 7.17324 15.636C6.09055 15.9426 5.07645 16.4216 4.19434 17.2212C2.79115 18.4909 2.09584 20.6909 2.69614 22.5136C2.77185 22.7392 2.86164 22.9487 2.96375 23.146C1.89685 24.3684 1.05175 25.7915 0.465546 27.3325C0.259544 27.8679 0.375744 28.4597 0.678547 28.9511C-0.0767555 30.7705 0.0447464 32.9438 1.44614 34.4057C1.30704 34.6909 1.17855 34.9817 1.06065 35.2758C1.01305 35.3603 0.963745 35.4448 0.919746 35.5329C-0.219357 37.7539 -0.303856 40.1333 0.685646 42.416C0.944344 43.0095 1.85815 43.5449 2.50425 43.4585C3.69965 43.2983 4.87045 43.0481 6.00425 42.7011C5.27364 43.4021 4.63985 44.2087 4.12925 45.1071C3.36874 46.4455 4.31934 48.3408 5.94614 48.2739C8.21194 48.1804 10.4285 47.6889 12.4884 46.7944C12.807 47.0461 13.1697 47.2224 13.5588 47.3261C13.7648 48.9958 15.7384 49.9277 17.0447 48.6613C17.5606 48.1628 18.0764 47.6643 18.5905 47.1643C19.0042 47.7524 19.7155 48.1875 20.3528 48.1047C20.7075 48.059 21.0582 48.0356 21.4037 48.0337C21.1607 48.2871 20.9352 48.5642 20.7308 48.873C20.2903 49.5383 21.0162 50.3442 21.7248 50.1667C22.6885 49.925 23.6077 49.5708 24.4764 49.1071C24.5399 49.1613 24.6125 49.2019 24.6908 49.2304C24.5315 49.5595 24.4223 49.9265 24.3704 50.3235L24.3685 50.3549C24.2216 50.3237 24.0688 50.3025 23.9056 50.301C22.55 50.2851 21.4056 51.5005 21.3563 52.8232C21.3458 53.1347 21.395 53.4289 21.4901 53.7002C21.0592 55.4821 20.9834 57.4008 21.5822 58.9941C21.5015 59.1845 21.5079 59.4126 21.5745 59.6096C21.1993 60.0156 20.9514 60.5588 20.8966 61.1621C20.8033 62.1877 21.3037 63.0153 21.9852 63.7031C22.0194 63.7968 22.0568 63.8899 22.0977 63.9817C22.0905 64.0344 22.0855 64.0874 22.0823 64.1403C21.3848 64.9734 21.2368 66.2138 21.9697 67.2434C22.0014 67.2878 22.0349 67.3288 22.0685 67.3689C22.0903 67.684 22.1609 67.9975 22.281 68.3007C22.2227 68.4641 22.1464 68.6262 22.1098 68.7829C21.9996 69.2534 21.9866 69.7256 22.0507 70.2019C22.1317 70.8034 22.3452 71.3725 22.6701 71.8713L22.6933 72.0288C22.6132 72.2868 22.5975 72.5808 22.6679 72.905C22.6204 72.9314 22.5711 72.9577 22.5236 72.9824C21.0465 72.3835 19.182 72.653 18.1169 73.886C17.0729 75.0922 17.7559 76.9997 19.425 77.049C20.1345 77.0686 20.8757 76.9592 21.5817 76.7339L21.8017 76.8906C22.3827 77.2939 23.0693 77.5283 23.7525 77.5175C23.7769 77.7968 23.8014 78.0764 23.8327 78.3554C23.9121 79.3418 24.1241 80.3176 24.572 81.143C23.6195 82.3491 22.722 83.643 21.6468 84.7282C20.6715 85.7158 21.9531 87.5168 23.1697 86.7028L23.3034 86.6148C24.6489 85.7538 26.2331 85.2783 27.4496 84.2385C27.8916 84.5415 28.3334 84.8444 28.7753 85.1455C28.7084 85.2512 28.6433 85.3552 28.5799 85.4588L28.4932 85.5998C28.1124 86.2048 27.6696 86.7838 27.1873 87.3088C26.2084 88.3738 24.9531 89.0238 23.8916 89.9788C23.4813 90.3468 23.9267 90.9228 24.3898 90.8348C25.9064 90.5438 27.1322 89.3298 28.0732 88.1438L28.1785 88.0098C28.6697 87.3808 29.0658 86.7128 29.3862 85.9818C29.4584 85.9138 29.5341 85.8488 29.6081 85.7828C29.8634 85.9998 30.1134 86.2218 30.3563 86.4528C30.7947 87.1678 31.314 87.8458 31.7771 88.5168C31.9602 88.7808 32.2894 88.9848 32.6257 89.0328C33.1961 89.8218 33.7084 90.6568 34.1503 91.5338C34.7577 92.7438 36.851 91.8968 36.3651 90.6008L36.2014 90.1598C36.2841 90.0688 36.3581 89.9678 36.425 89.8608C36.6098 90.2018 36.8088 90.5348 37.02 90.8508C38.506 93.0538 40.5922 95.5758 43.4619 95.6158C44.3792 95.6288 45.013 94.5558 44.5236 93.7648C43.9028 92.7638 43.1364 92.1168 42.2562 91.4178L41.8721 91.1148C40.9584 90.3908 40.094 89.6088 39.3017 88.7528C38.5236 87.9088 37.8299 87.0368 37.1468 86.1138C37.013 85.9328 36.6521 85.2566 36.2542 84.7705C36.7454 84.4604 37.0112 84.0554 37.307 83.4548C37.6468 82.7661 36.9725 82.1479 36.3017 82.4492C36.006 82.583 35.6398 82.6023 35.3264 82.7292C35.1116 82.8171 34.9003 82.9106 34.675 82.9775C34.145 83.1325 33.5781 83.1623 33.0324 83.0761C31.8387 82.886 30.8334 82.1303 30.0693 81.2251C28.4091 79.2612 27.513 76.3183 27.9813 73.7732C28.4179 71.4043 30.1996 69.3225 32.6187 68.8628C34.8721 68.4348 37.4866 70.124 37.9408 72.3589C37.976 72.5315 38.2208 72.477 38.2331 72.3203C38.2806 71.6738 38.1997 71.0556 38.0183 70.4797C38.8052 70.9922 39.6979 71.3391 40.6591 71.4782C40.6926 71.4836 40.7243 71.4853 40.7559 71.487C41.3193 71.7107 41.9215 71.8217 42.4813 71.7988C42.7208 71.79 42.9373 71.5998 42.932 71.3479C42.844 66.7036 41.9003 62.0942 40.5394 57.6435L41.0654 58.0986C41.9003 58.8303 42.7703 59.7439 43.8563 60.0708C45.9267 60.696 47.1661 58.8554 47.0042 56.9919C46.9194 56.0168 46.6105 55.0839 46.3288 54.1523L46.2454 53.8728C45.858 52.5608 45.4708 51.2485 45.0852 49.9382C45.0852 49.8994 45.0852 49.8606 45.0834 49.8237C46.5112 50.5952 48.307 51.0708 49.5447 49.8852C50.3104 49.1538 50.4979 48.0786 50.5954 47.0651L50.6151 46.8488C50.6627 46.3047 50.6908 45.7551 50.7049 45.2058C51.6838 46.2553 52.7915 47.1714 54.1115 47.7402C56.3965 48.7246 58.9305 48.2807 60.7315 46.5566C60.7545 46.5354 60.7755 46.5107 60.7965 46.4897C61.3365 46.6252 61.8885 46.7256 62.4426 46.8137C64.5415 47.1484 66.7845 47.476 68.9105 47.4443C70.8365 47.4143 72.8456 47.0866 74.4515 45.9524C75.4675 45.2373 76.3935 44.1789 76.8586 42.976L76.8965 42.99L76.8805 43.0332C76.7265 43.4651 76.7915 43.9316 77.1855 44.3833C77.5305 44.7795 78.0815 44.945 78.6325 44.9362C78.7415 45.1193 78.8805 45.2956 79.0885 45.477C79.5255 45.8625 79.9935 46.1743 80.5255 46.4087C81.6646 46.9157 82.8055 46.9775 84.0215 46.759C84.1826 46.7309 84.3295 46.6587 84.4615 46.5583C85.0585 47.7365 85.5396 48.9712 85.9075 50.2412C86.0425 50.7077 86.1346 51.1904 86.2455 51.666C86.3376 52.8933 86.3936 54.125 86.4465 55.351L86.4915 56.4001C86.6275 59.4753 86.5975 62.5539 86.6785 65.6308C86.7635 68.7783 87.1555 71.9272 87.2825 75.0747C88.1805 97.2698 79.4406 102.423 69.1346 103.771C64.7616 104.343 59.8755 103.018 57.2155 102.13C55.6715 101.614 54.8075 103.419 57.0315 104.304C59.2555 105.189 63.7285 106.777 69.0995 106.462C79.3345 105.863 87.7135 98.1508 89.6346 88.0218C90.5596 83.1469 90.2375 78.0903 89.9205 73.1213C89.8575 72.1298 89.7946 71.1418 89.7415 70.1594L89.7155 69.6535C89.6875 69.0952 89.6595 68.5388 89.6326 67.9821C90.0625 68.5669 90.6416 69.0161 91.3015 69.3261C92.8615 70.0605 94.9216 70.0676 95.8846 68.4084C96.1906 67.8801 95.6745 67.0893 95.0466 67.3164C94.0466 67.6775 92.9375 67.9858 91.8795 67.7021C91.1156 67.4961 90.0576 66.9008 89.5396 66.1486C89.4395 64.2307 89.3226 62.3127 89.1525 60.4001C89.0305 59.0615 88.9035 57.7124 88.7276 56.372C89.1965 56.3579 89.6436 56.0991 89.7265 55.5725C89.8495 54.778 89.8916 53.9751 90.0076 53.1823C90.0305 53.0295 90.0576 52.884 90.0845 52.7414C90.1675 52.3012 90.2446 51.8923 90.1606 51.4001C90.0835 50.9384 89.9655 50.4824 89.8475 50.0297C89.3736 48.2402 88.6745 46.4968 87.8286 44.8518C87.1996 43.6276 86.4906 42.4404 85.7045 41.3081C85.2805 40.2856 84.5676 39.3154 83.9115 38.3891L83.7415 38.1484L83.8145 37.7573L83.8246 37.697C83.9756 36.7544 83.6685 35.9091 82.8456 35.3796C80.7036 34.0007 78.5676 32.611 76.4195 31.2407C75.4975 30.6526 74.3846 30.2192 73.3265 30.1875C72.3635 28.9001 70.8315 28.0935 69.0855 27.8098C67.6995 27.5844 66.3085 27.572 64.9395 27.2409C63.6395 26.9257 62.3725 26.487 61.0515 26.2617C59.0005 25.9111 56.7155 25.8918 54.8075 26.8271C53.2456 26.8305 51.6838 26.9397 50.1309 27.1723C49.6151 26.4887 49.0148 25.8725 48.3493 25.3318C48.4267 25.2207 48.5077 25.1115 48.5887 25.0024C49.0482 25.1169 49.5552 25.0568 50.0465 24.7487C51.7155 23.7009 52.7645 22.0329 52.6535 20.0339C52.6065 19.1779 52.1555 18.6108 51.5694 18.3554C51.7736 17.6914 52.0394 17.0451 52.3635 16.4162C52.6505 15.99 52.9175 15.5481 53.1555 15.0813C54.3955 12.6613 51.0236 10.6975 49.5219 12.9572C49.2666 13.341 49.0289 13.7373 48.8088 14.1408C48.4901 14.6003 48.1327 15.0319 47.7419 15.4282L47.8651 13.5542L47.8676 13.5009C47.8884 12.81 47.4469 12.1428 46.8616 11.77L47.1644 10.4262C47.2141 10.2068 47.267 9.98428 47.3204 9.75998C47.7636 7.89938 48.2404 5.89718 47.1486 4.18088C45.4338 1.48798 41.5676 1.14618 38.8581 2.47598C38.7084 2.16768 38.5693 1.85418 38.4443 1.53188L38.4239 1.48088L38.4239 1.48088ZM34.1043 31.1252C36.7524 29.0149 40.31 26.9267 43.8449 26.8337C44.6622 27.1474 45.4179 27.5722 46.0832 28.1093C43.3649 28.9882 40.8085 30.3408 38.5216 32.0669C35.5057 34.3442 32.997 37.081 30.7188 40.0839C29.8929 41.1716 29.1224 42.2978 28.4132 43.4599L28.4063 43.4919C28.2186 44.1814 27.8961 44.8315 27.5271 45.4475C27.4301 45.3464 27.3073 45.2702 27.1596 45.2351C26.7012 45.1257 26.2848 44.895 25.9639 44.5732C26.041 44.2771 26.1468 43.9904 26.2892 43.7241L26.3455 43.478C26.5269 42.6748 26.6624 41.8698 26.879 41.0739C27.2077 39.8684 27.5968 38.6716 28.0499 37.4992C29.8114 35.1452 31.8007 32.9614 34.1043 31.1252L34.1043 31.1252ZM23.6979 51.0547C23.3246 51.0669 23.4496 51.4299 23.6416 51.1269C23.6574 51.1023 23.6767 51.0776 23.6979 51.0547L23.6979 51.0547ZM35.055 73.7644C33.6384 73.0825 32.3188 72.8437 30.7612 72.7529L30.7399 72.7529C30.5534 72.7619 30.4859 73.0468 30.6573 73.1369C31.8703 73.7763 33.101 74.7326 34.1027 75.6626C35.0957 76.5854 35.9337 78.0649 37.4003 78.1652C37.9355 78.2024 38.2753 77.7092 38.3245 77.2407C38.4989 75.594 36.4284 74.4455 35.1767 73.8237L35.055 73.7644L35.055 73.7644ZM25.8725 82.5886L25.7554 82.8042C25.7365 82.8396 25.7178 82.8745 25.6995 82.9087C25.9477 82.8894 26.1977 82.8945 26.4442 82.9228L26.4435 82.8964C26.4118 82.8857 26.3801 82.8759 26.3498 82.861C26.1798 82.7793 26.0216 82.6877 25.8725 82.5886L25.8725 82.5886ZM34.3967 85.3657C34.571 85.3447 34.7453 85.3147 34.9179 85.2778C34.9125 85.5018 34.9372 85.7428 34.9794 85.9818C34.8369 85.9118 34.6942 85.8358 34.5534 85.7568C34.5023 85.6268 34.4495 85.4958 34.3967 85.3657L34.3967 85.3657Z" stroke="#000000" stroke-opacity="0.000000" stroke-width="1" stroke-dasharray="0 0" fill-opacity="0" transform="matrix(1 0 0 1 54.4243 21.1551)"/>
	<path d="M24.7586 0.0832748L24.5056 0.0315781C24.2076 -0.0280228 23.9086 -0.00292206 23.6456 0.10408C23.3876 0.208977 23.1636 0.391876 23.0066 0.655273C22.7976 1.00638 22.7696 1.30077 22.8666 1.68998C22.9416 1.99078 23.1056 2.21687 23.3196 2.38018C23.5456 2.55228 23.8326 2.65258 24.1296 2.68758C25.5016 2.84888 26.8536 3.15088 28.1666 3.57967C28.7826 3.78058 29.3636 4.05257 29.9396 4.33498L30.4356 4.57967C30.8936 4.80347 31.3666 5.01928 31.9636 5.17608C32.0106 5.18848 32.0576 5.19997 32.1026 5.21098C32.2686 5.15897 32.2966 5.09578 32.3316 5.05008L32.3466 5.03228C32.3886 4.97878 32.4416 4.89677 32.3916 4.51418C31.0876 1.80907 27.5116 0.658974 24.7586 0.0832748L24.7586 0.0832748ZM7.67361 0.850876L8.00462 0.792976C9.02662 0.615974 10.2986 0.446075 11.0216 1.26838C11.4056 1.70438 11.5376 2.51498 11.0216 2.93237C10.3466 3.47928 9.61761 3.46117 8.84161 3.44198C8.57462 3.43538 8.30262 3.42847 8.02462 3.44437C7.12862 3.49588 6.26862 3.64407 5.40562 3.89088C3.51262 4.43217 1.96962 5.42017 0.353615 6.50518C0.140617 6.64748 -0.075386 6.37598 0.0256195 6.17757C0.958618 4.34888 2.76762 2.84668 4.57962 1.93098C5.54562 1.44218 6.60461 1.03688 7.67361 0.850876L7.67361 0.850876ZM5.27462 8.83258C5.42162 7.00858 8.19862 6.59428 8.47462 8.39918C8.72262 10.0162 8.43062 11.5013 7.70261 12.9571C7.00761 14.3477 5.25861 13.699 5.12662 12.4327C4.99662 11.1817 5.08862 10.4356 5.18362 9.67558C5.21661 9.40437 5.25062 9.13118 5.27462 8.83258L5.27462 8.83258ZM28.0286 7.36748C27.3586 7.17168 26.7996 7.51788 26.4126 8.02518C26.3676 8.08378 26.3316 8.14168 26.2986 8.19897C25.0906 9.31007 25.5456 11.5626 26.4966 12.6905C27.0796 13.3821 28.3706 13.1829 28.7696 12.3973C29.5046 10.9507 30.1206 7.97908 28.0286 7.36748L28.0286 7.36748ZM22.6666 20.9661C24.0966 18.962 22.0706 17.077 20.7416 16.2684C20.3936 16.0184 20.6696 15.19 21.4136 15.3179C28.1736 16.4798 24.6716 28.1287 16.0406 21.7364C15.0126 20.907 16.2576 19.0806 17.3646 19.7908C17.4206 19.8338 17.4796 19.8795 17.5406 19.9268C18.7856 20.8892 21.0616 22.6502 22.6666 20.9661L22.6666 20.9661ZM13.4656 30.9557C14.2376 31.9857 15.2936 32.7907 16.4766 33.2737C17.6296 33.7447 18.9036 33.9087 20.1526 33.6797C21.2866 33.4717 22.4916 32.8777 23.4006 32.0197C24.2186 31.2477 24.7956 30.2637 24.8926 29.1607C24.9076 28.9917 24.8616 28.8437 24.7796 28.7247C24.6946 28.5987 24.5666 28.5047 24.4236 28.4547C24.2756 28.4027 24.1146 28.4007 23.9716 28.4477C23.8426 28.4907 23.7266 28.5727 23.6436 28.7007C23.5116 28.8407 23.3796 28.9797 23.2486 29.1137C22.1876 30.1777 21.1896 30.9607 19.7416 31.1247C18.9816 31.2107 18.2466 31.0627 17.5906 30.7457C16.9086 30.4177 16.3106 29.9077 15.8516 29.2867L15.7976 29.2117C15.5366 28.8367 15.2086 28.6557 14.8776 28.6037C14.4976 28.5447 14.1046 28.6607 13.7906 28.8977C13.4766 29.1347 13.2466 29.4867 13.1836 29.8747C13.1276 30.2207 13.1966 30.5987 13.4656 30.9557L13.4656 30.9557Z" fill="#000000" fill-opacity="1.000000" stroke-opacity="0" transform="matrix(1 0 0 1 109.354 80.1572)"/>
	<path d="M24.7586 0.0832748L24.5056 0.0315781C24.2076 -0.0280228 23.9086 -0.00292206 23.6456 0.10408C23.3876 0.208977 23.1636 0.391876 23.0066 0.655273C22.7976 1.00638 22.7696 1.30077 22.8666 1.68998C22.9416 1.99078 23.1056 2.21687 23.3196 2.38018C23.5456 2.55228 23.8326 2.65258 24.1296 2.68758C25.5016 2.84888 26.8536 3.15088 28.1666 3.57967C28.7826 3.78058 29.3636 4.05257 29.9396 4.33498L30.4356 4.57967C30.8936 4.80347 31.3666 5.01928 31.9636 5.17608C32.0106 5.18848 32.0576 5.19997 32.1026 5.21098C32.2686 5.15897 32.2966 5.09578 32.3316 5.05008L32.3466 5.03228C32.3886 4.97878 32.4416 4.89677 32.3916 4.51418C31.0876 1.80907 27.5116 0.658974 24.7586 0.0832748L24.7586 0.0832748ZM7.67361 0.850876L8.00462 0.792976C9.02662 0.615974 10.2986 0.446075 11.0216 1.26838C11.4056 1.70438 11.5376 2.51498 11.0216 2.93237C10.3466 3.47928 9.61761 3.46117 8.84161 3.44198C8.57462 3.43538 8.30262 3.42847 8.02462 3.44437C7.12862 3.49588 6.26862 3.64407 5.40562 3.89088C3.51262 4.43217 1.96962 5.42017 0.353615 6.50518C0.140617 6.64748 -0.075386 6.37598 0.0256195 6.17757C0.958618 4.34888 2.76762 2.84668 4.57962 1.93098C5.54562 1.44218 6.60461 1.03688 7.67361 0.850876L7.67361 0.850876ZM5.27462 8.83258C5.42162 7.00858 8.19862 6.59428 8.47462 8.39918C8.72262 10.0162 8.43062 11.5013 7.70261 12.9571C7.00761 14.3477 5.25861 13.699 5.12662 12.4327C4.99662 11.1817 5.08862 10.4356 5.18362 9.67558C5.21661 9.40437 5.25062 9.13118 5.27462 8.83258L5.27462 8.83258ZM28.0286 7.36748C27.3586 7.17168 26.7996 7.51788 26.4126 8.02518C26.3676 8.08378 26.3316 8.14168 26.2986 8.19897C25.0906 9.31007 25.5456 11.5626 26.4966 12.6905C27.0796 13.3821 28.3706 13.1829 28.7696 12.3973C29.5046 10.9507 30.1206 7.97908 28.0286 7.36748L28.0286 7.36748ZM22.6666 20.9661C24.0966 18.962 22.0706 17.077 20.7416 16.2684C20.3936 16.0184 20.6696 15.19 21.4136 15.3179C28.1736 16.4798 24.6716 28.1287 16.0406 21.7364C15.0126 20.907 16.2576 19.0806 17.3646 19.7908C17.4206 19.8338 17.4796 19.8795 17.5406 19.9268C18.7856 20.8892 21.0616 22.6502 22.6666 20.9661L22.6666 20.9661ZM13.4656 30.9557C14.2376 31.9857 15.2936 32.7907 16.4766 33.2737C17.6296 33.7447 18.9036 33.9087 20.1526 33.6797C21.2866 33.4717 22.4916 32.8777 23.4006 32.0197C24.2186 31.2477 24.7956 30.2637 24.8926 29.1607C24.9076 28.9917 24.8616 28.8437 24.7796 28.7247C24.6946 28.5987 24.5666 28.5047 24.4236 28.4547C24.2756 28.4027 24.1146 28.4007 23.9716 28.4477C23.8426 28.4907 23.7266 28.5727 23.6436 28.7007C23.5116 28.8407 23.3796 28.9797 23.2486 29.1137C22.1876 30.1777 21.1896 30.9607 19.7416 31.1247C18.9816 31.2107 18.2466 31.0627 17.5906 30.7457C16.9086 30.4177 16.3106 29.9077 15.8516 29.2867L15.7976 29.2117C15.5366 28.8367 15.2086 28.6557 14.8776 28.6037C14.4976 28.5447 14.1046 28.6607 13.7906 28.8977C13.4766 29.1347 13.2466 29.4867 13.1836 29.8747C13.1276 30.2207 13.1966 30.5987 13.4656 30.9557L13.4656 30.9557Z" stroke="#000000" stroke-opacity="0.000000" stroke-width="1" stroke-dasharray="0 0" fill-opacity="0" transform="matrix(1 0 0 1 109.354 80.1572)"/>
	<path d="M53.3242 14.6988C53.3512 14.7568 53.3742 14.8208 53.3902 14.8918C55.2872 23.7728 55.7672 34.0068 51.8672 42.3958C40.6002 52.5458 16.2062 48.6478 6.43718 37.6018C-1.06052 32.6718 -0.305023 21.3508 0.470276 13.2784C0.926079 9.23228 0.864876 4.79548 2.70528 1.10208C2.56258 0.188583 3.87578 -0.492119 4.29648 0.459778C6.28767 4.95808 8.35287 9.59378 11.5467 13.3873C14.5402 17.5558 23.6572 23.1408 25.4502 15.1258C27.7232 10.1075 36.4332 9.19638 41.2522 9.99178C44.2472 10.7594 45.1112 12.6422 45.8812 14.3208C46.7142 16.1378 47.4382 17.7148 50.6322 17.3808C50.7052 17.4028 50.7812 17.4098 50.8542 17.4048C51.2252 16.9068 51.4722 16.1928 51.7462 15.6168C51.7212 15.4878 51.6822 15.3558 51.6712 15.2258C52.0252 14.7038 52.5992 14.4238 53.3242 14.6988L53.3242 14.6988ZM40.1132 22.2338C40.4232 22.5538 40.7252 22.8648 41.0202 23.1268C42.2772 23.9708 43.2082 22.3528 43.1532 21.2518C43.0692 19.6138 41.6712 16.4748 39.7732 15.6958C35.8882 14.8318 29.0692 16.2978 30.7192 21.6408C31.1222 22.6028 32.2942 23.8548 33.4772 23.4708C34.3682 23.1818 34.6042 21.7098 35.1872 21.0528C37.1182 19.1468 38.7022 20.7788 40.1132 22.2338L40.1132 22.2338Z" fill="#000000" fill-opacity="1.000000" stroke-opacity="0" transform="matrix(1 0 0 1 92.8047 93.0141)"/>
	<path d="M53.3242 14.6988C53.3512 14.7568 53.3742 14.8208 53.3902 14.8918C55.2872 23.7728 55.7672 34.0068 51.8672 42.3958C40.6002 52.5458 16.2062 48.6478 6.43718 37.6018C-1.06052 32.6718 -0.305023 21.3508 0.470276 13.2784C0.926079 9.23228 0.864876 4.79548 2.70528 1.10208C2.56258 0.188583 3.87578 -0.492119 4.29648 0.459778C6.28767 4.95808 8.35287 9.59378 11.5467 13.3873C14.5402 17.5558 23.6572 23.1408 25.4502 15.1258C27.7232 10.1075 36.4332 9.19638 41.2522 9.99178C44.2472 10.7594 45.1112 12.6422 45.8812 14.3208C46.7142 16.1378 47.4382 17.7148 50.6322 17.3808C50.7052 17.4028 50.7812 17.4098 50.8542 17.4048C51.2252 16.9068 51.4722 16.1928 51.7462 15.6168C51.7212 15.4878 51.6822 15.3558 51.6712 15.2258C52.0252 14.7038 52.5992 14.4238 53.3242 14.6988L53.3242 14.6988ZM40.1132 22.2338C40.4232 22.5538 40.7252 22.8648 41.0202 23.1268C42.2772 23.9708 43.2082 22.3528 43.1532 21.2518C43.0692 19.6138 41.6712 16.4748 39.7732 15.6958C35.8882 14.8318 29.0692 16.2978 30.7192 21.6408C31.1222 22.6028 32.2942 23.8548 33.4772 23.4708C34.3682 23.1818 34.6042 21.7098 35.1872 21.0528C37.1182 19.1468 38.7022 20.7788 40.1132 22.2338L40.1132 22.2338Z" stroke="#000000" stroke-opacity="0.000000" stroke-width="1" stroke-dasharray="0 0" fill-opacity="0" transform="matrix(1 0 0 1 92.8047 93.0141)"/>
	<path d="M72.0883 0.677162C72.2333 0.698463 72.3793 0.721161 72.5233 0.745361C73.6393 0.930161 73.8112 2.68407 72.8392 3.16426C72.0923 3.53416 71.6233 4.27077 71.8233 5.12157C71.9683 5.73876 71.7023 6.22946 71.2832 6.48267C71.1543 10.4629 70.4993 14.9221 67.4043 17.8347C60.2812 22.5503 53.2263 16.8003 54.7013 7.70796C54.5963 7.63377 54.5033 7.53947 54.4353 7.42136C54.3863 7.34196 54.3443 7.26286 54.3043 7.18376C54.1493 7.05637 52.9983 6.64056 51.5043 6.84766C50.0093 7.05486 49.5343 7.75217 48.7783 8.50706C48.6623 8.73457 48.4623 8.90646 48.1483 8.97697C47.5533 12.3249 46.9423 16.0393 44.3793 18.5466C37.9583 24.5486 26.8771 19.5649 27.2869 10.4341C25.0557 10.0532 26.916 7.43376 23.3862 6.84766C22.7493 6.63426 22.1466 6.22626 21.7494 5.75846C16.4702 5.19116 11.2734 5.44527 6.16885 7.27996C5.85655 7.41056 5.53005 7.52976 5.20496 7.64836C3.39485 8.30856 1.63096 8.95206 2.63175 11.4851C2.59356 12.3249 1.56656 12.8247 0.961456 12.2041L0.961052 12.2048C0.960052 12.2036 0.959656 12.2024 0.958855 12.2014C-2.47655 6.03076 4.04556 4.99796 9.05715 4.20457C9.16766 4.18726 9.27736 4.16966 9.38615 4.15257C12.0822 3.57096 14.8408 3.32536 17.5963 3.38306C17.9155 3.39666 18.2576 3.40206 18.6086 3.40717C19.6765 3.42326 20.8278 3.44067 21.6763 3.70336C21.6809 3.70477 21.6854 3.70576 21.6898 3.70696C22.8632 0.149361 47.2613 -0.683639 48.6733 5.21746C49.3293 5.20066 49.9263 5.24976 50.4953 5.29636C51.5343 5.38176 52.4773 5.45916 53.5103 5.11396C53.9903 0.825867 65.6113 -0.780037 70.6343 0.351067C70.9843 0.383461 71.3353 0.444061 71.6883 0.533661C71.8423 0.563461 71.9753 0.612762 72.0883 0.677162L72.0883 0.677162ZM66.9253 15.7317C65.7393 17.3247 63.5423 17.8323 61.5153 17.657C57.1433 17.2361 55.7673 12.269 55.6243 8.40866C56.7003 8.71136 56.9533 8.11566 57.3372 7.20827C58.0003 5.64426 59.0553 3.15496 65.3973 2.74826C67.7463 2.55246 68.1022 3.43037 68.5363 4.49926C68.7552 5.03777 68.9933 5.62496 69.5163 6.14746C69.4843 9.42036 68.9403 12.9766 66.9253 15.7317L66.9253 15.7317ZM46.1023 11.9709C43.5213 24.0625 29.3883 21.1865 27.9036 10.2869C29.2743 9.31876 28.9133 6.92847 30.6163 6.06246C33.2723 4.36496 36.5823 4.40916 39.6083 4.44946C39.6573 4.45016 39.7063 4.45087 39.7553 4.45166C43.6733 4.72086 44.7903 6.34447 46.8033 8.11597C46.7063 9.29926 46.4273 10.7014 46.1023 11.9709L46.1023 11.9709Z" fill="#000000" fill-opacity="1.000000" stroke-opacity="0" transform="matrix(1 0 0 1 78.0156 82.2703)"/>
	<path d="M72.0883 0.677162C72.2333 0.698463 72.3793 0.721161 72.5233 0.745361C73.6393 0.930161 73.8112 2.68407 72.8392 3.16426C72.0923 3.53416 71.6233 4.27077 71.8233 5.12157C71.9683 5.73876 71.7023 6.22946 71.2832 6.48267C71.1543 10.4629 70.4993 14.9221 67.4043 17.8347C60.2812 22.5503 53.2263 16.8003 54.7013 7.70796C54.5963 7.63377 54.5033 7.53947 54.4353 7.42136C54.3863 7.34196 54.3443 7.26286 54.3043 7.18376C54.1493 7.05637 52.9983 6.64056 51.5043 6.84766C50.0093 7.05486 49.5343 7.75217 48.7783 8.50706C48.6623 8.73457 48.4623 8.90646 48.1483 8.97697C47.5533 12.3249 46.9423 16.0393 44.3793 18.5466C37.9583 24.5486 26.8771 19.5649 27.2869 10.4341C25.0557 10.0532 26.916 7.43376 23.3862 6.84766C22.7493 6.63426 22.1466 6.22626 21.7494 5.75846C16.4702 5.19116 11.2734 5.44527 6.16885 7.27996C5.85655 7.41056 5.53005 7.52976 5.20496 7.64836C3.39485 8.30856 1.63096 8.95206 2.63175 11.4851C2.59356 12.3249 1.56656 12.8247 0.961456 12.2041L0.961052 12.2048C0.960052 12.2036 0.959656 12.2024 0.958855 12.2014C-2.47655 6.03076 4.04556 4.99796 9.05715 4.20457C9.16766 4.18726 9.27736 4.16966 9.38615 4.15257C12.0822 3.57096 14.8408 3.32536 17.5963 3.38306C17.9155 3.39666 18.2576 3.40206 18.6086 3.40717C19.6765 3.42326 20.8278 3.44067 21.6763 3.70336C21.6809 3.70477 21.6854 3.70576 21.6898 3.70696C22.8632 0.149361 47.2613 -0.683639 48.6733 5.21746C49.3293 5.20066 49.9263 5.24976 50.4953 5.29636C51.5343 5.38176 52.4773 5.45916 53.5103 5.11396C53.9903 0.825867 65.6113 -0.780037 70.6343 0.351067C70.9843 0.383461 71.3353 0.444061 71.6883 0.533661C71.8423 0.563461 71.9753 0.612762 72.0883 0.677162L72.0883 0.677162ZM66.9253 15.7317C65.7393 17.3247 63.5423 17.8323 61.5153 17.657C57.1433 17.2361 55.7673 12.269 55.6243 8.40866C56.7003 8.71136 56.9533 8.11566 57.3372 7.20827C58.0003 5.64426 59.0553 3.15496 65.3973 2.74826C67.7463 2.55246 68.1022 3.43037 68.5363 4.49926C68.7552 5.03777 68.9933 5.62496 69.5163 6.14746C69.4843 9.42036 68.9403 12.9766 66.9253 15.7317L66.9253 15.7317ZM46.1023 11.9709C43.5213 24.0625 29.3883 21.1865 27.9036 10.2869C29.2743 9.31876 28.9133 6.92847 30.6163 6.06246C33.2723 4.36496 36.5823 4.40916 39.6083 4.44946C39.6573 4.45016 39.7063 4.45087 39.7553 4.45166C43.6733 4.72086 44.7903 6.34447 46.8033 8.11597C46.7063 9.29926 46.4273 10.7014 46.1023 11.9709L46.1023 11.9709Z" stroke="#000000" stroke-opacity="0.000000" stroke-width="1" stroke-dasharray="0 0" fill-opacity="0" transform="matrix(1 0 0 1 78.0156 82.2703)"/>
</svg>
